<svg xmlns="http://www.w3.org/2000/svg" viewBox="0 0 1200 800">
  <defs>
    <linearGradient id="bg" x1="0" y1="0" x2="1" y2="1">
      <stop offset="0" stop-color="#0c4a6e"/>
      <stop offset="0.55" stop-color="#0284c7"/>
      <stop offset="1" stop-color="#38bdf8"/>
    </linearGradient>
  </defs>
  <rect width="1200" height="800" fill="url(#bg)"/>
  <circle cx="140" cy="140" r="200" fill="#ffffff" opacity="0.07"/>
  <circle cx="1080" cy="680" r="240" fill="#ffffff" opacity="0.06"/>
  <g fill="#ffffff" opacity="0.9">
    <circle cx="300" cy="120" r="7"/>
    <circle cx="880" cy="110" r="9"/>
    <circle cx="1020" cy="300" r="6"/>
    <circle cx="220" cy="620" r="9"/>
    <circle cx="760" cy="680" r="7"/>
  </g>
  <g transform="translate(600 400)">
    <path d="M0 -150 C 90 -150 160 -95 160 -40 C 160 -5 120 10 70 10 L -70 10 C -120 10 -160 -5 -160 -40 C -160 -95 -90 -150 0 -150 Z" fill="#ffffff" opacity="0.85"/>
    <rect x="-240" y="10" width="120" height="110" rx="14" fill="#ffffff"/>
    <rect x="-110" y="30" width="100" height="90" rx="14" fill="#fce7f3"/>
    <rect x="0" y="10" width="110" height="110" rx="14" fill="#ffffff"/>
    <rect x="120" y="30" width="120" height="90" rx="14" fill="#fce7f3"/>
    <g stroke="#ec6a9c" stroke-width="12" stroke-linecap="round" fill="none">
      <path d="M-180 65 L-120 65"/>
      <path d="M-180 95 L-120 95"/>
      <path d="M-55 75 L-10 75"/>
      <path d="M-55 100 L-10 100"/>
      <path d="M60 65 L120 65"/>
      <path d="M60 95 L120 95"/>
      <path d="M180 75 L230 75"/>
      <path d="M180 100 L230 100"/>
    </g>
    <path d="M-80 145 L0 185 L80 145" stroke="#ffffff" stroke-width="16" stroke-linecap="round" fill="none"/>
    <path d="M-55 205 L0 235 L55 205" stroke="#ffffff" stroke-width="12" stroke-linecap="round" fill="none" opacity="0.7"/>
  </g>
</svg>
